<mxfile host="app.diagrams.net" modified="2021-06-24T13:36:58.967Z" agent="5.0 (Windows NT 10.0; WOW64) AppleWebKit/537.36 (KHTML, like Gecko) Chrome/91.0.4472.114 Safari/537.36" etag="9hsRzu4sVYG5PAf1jF2w" version="14.8.0" type="github">
  <diagram id="NVuQDdQXMaephLCU_e6u" name="Page-1">
    <mxGraphModel dx="1108" dy="482" grid="1" gridSize="10" guides="1" tooltips="1" connect="1" arrows="1" fold="1" page="1" pageScale="1" pageWidth="850" pageHeight="1100" math="0" shadow="0">
      <root>
        <mxCell id="0" />
        <mxCell id="1" parent="0" />
        <mxCell id="CcL5CDCbCMJ0OjLBRZY6-1" value="SRC/&lt;br&gt;TARGET/&lt;br&gt;&amp;nbsp; &amp;nbsp; &amp;nbsp; &amp;nbsp; &amp;nbsp; &amp;nbsp; &amp;nbsp; &amp;nbsp; &amp;nbsp; &amp;nbsp; &amp;nbsp; &amp;nbsp;/class&lt;br&gt;&amp;nbsp; &amp;nbsp; &amp;nbsp; &amp;nbsp; &amp;nbsp; &amp;nbsp; &amp;nbsp; &amp;nbsp; /jar&lt;br&gt;POM.XML" style="rounded=1;whiteSpace=wrap;html=1;" vertex="1" parent="1">
          <mxGeometry x="520" y="310" width="250" height="120" as="geometry" />
        </mxCell>
        <mxCell id="CcL5CDCbCMJ0OjLBRZY6-2" value="workspace" style="text;html=1;strokeColor=none;fillColor=none;align=center;verticalAlign=middle;whiteSpace=wrap;rounded=0;" vertex="1" parent="1">
          <mxGeometry x="540" y="290" width="130" height="20" as="geometry" />
        </mxCell>
        <mxCell id="CcL5CDCbCMJ0OjLBRZY6-3" value=".m2/jar" style="rounded=1;whiteSpace=wrap;html=1;" vertex="1" parent="1">
          <mxGeometry x="330" y="190" width="190" height="60" as="geometry" />
        </mxCell>
        <mxCell id="CcL5CDCbCMJ0OjLBRZY6-5" value="" style="edgeStyle=orthogonalEdgeStyle;rounded=0;orthogonalLoop=1;jettySize=auto;html=1;" edge="1" parent="1" source="CcL5CDCbCMJ0OjLBRZY6-4" target="CcL5CDCbCMJ0OjLBRZY6-3">
          <mxGeometry relative="1" as="geometry" />
        </mxCell>
        <mxCell id="CcL5CDCbCMJ0OjLBRZY6-4" value="users" style="text;html=1;strokeColor=none;fillColor=none;align=center;verticalAlign=middle;whiteSpace=wrap;rounded=0;" vertex="1" parent="1">
          <mxGeometry x="400" y="160" width="40" height="20" as="geometry" />
        </mxCell>
        <mxCell id="CcL5CDCbCMJ0OjLBRZY6-6" value="mvn install" style="text;html=1;strokeColor=none;fillColor=none;align=center;verticalAlign=middle;whiteSpace=wrap;rounded=0;" vertex="1" parent="1">
          <mxGeometry x="250" y="360" width="90" height="20" as="geometry" />
        </mxCell>
        <mxCell id="CcL5CDCbCMJ0OjLBRZY6-7" value="" style="endArrow=classic;html=1;exitX=0;exitY=0.5;exitDx=0;exitDy=0;" edge="1" parent="1" source="CcL5CDCbCMJ0OjLBRZY6-2" target="CcL5CDCbCMJ0OjLBRZY6-3">
          <mxGeometry width="50" height="50" relative="1" as="geometry">
            <mxPoint x="400" y="240" as="sourcePoint" />
            <mxPoint x="450" y="190" as="targetPoint" />
          </mxGeometry>
        </mxCell>
        <mxCell id="CcL5CDCbCMJ0OjLBRZY6-9" value="jar" style="rounded=1;whiteSpace=wrap;html=1;" vertex="1" parent="1">
          <mxGeometry x="620" y="100" width="190" height="60" as="geometry" />
        </mxCell>
        <mxCell id="CcL5CDCbCMJ0OjLBRZY6-11" value="" style="endArrow=classic;html=1;exitX=1;exitY=0.5;exitDx=0;exitDy=0;entryX=0.368;entryY=1;entryDx=0;entryDy=0;entryPerimeter=0;" edge="1" parent="1" source="CcL5CDCbCMJ0OjLBRZY6-2" target="CcL5CDCbCMJ0OjLBRZY6-9">
          <mxGeometry width="50" height="50" relative="1" as="geometry">
            <mxPoint x="670" y="290" as="sourcePoint" />
            <mxPoint x="690" y="170" as="targetPoint" />
          </mxGeometry>
        </mxCell>
        <mxCell id="CcL5CDCbCMJ0OjLBRZY6-13" value="remote repo/nexus" style="text;html=1;strokeColor=none;fillColor=none;align=center;verticalAlign=middle;whiteSpace=wrap;rounded=0;" vertex="1" parent="1">
          <mxGeometry x="680" y="60" width="120" height="20" as="geometry" />
        </mxCell>
      </root>
    </mxGraphModel>
  </diagram>
</mxfile>
